<?xml version="1.0" encoding="UTF-8" standalone="no"?>
<!DOCTYPE svg PUBLIC "-//W3C//DTD SVG 1.1//EN"
 "http://www.w3.org/Graphics/SVG/1.1/DTD/svg11.dtd">
<!-- Generated by graphviz version 12.1.2 (0)
 -->
<!-- Title: ./main&#45;pprof; 292 samples Pages: 1 -->
<svg width="100%" height="100%"
  xmlns="http://www.w3.org/2000/svg" xmlns:xlink="http://www.w3.org/1999/xlink">
<script type="text/ecmascript"><![CDATA[
// SVGPan
// http://www.cyberz.org/blog/2009/12/08/svgpan-a-javascript-svg-panzoomdrag-library/
// Local modification: if(true || ...) below to force panning, never moving.

/**
 *  SVGPan library 1.2
 * ====================
 *
 * Given an unique existing element with id "viewport", including the
 * the library into any SVG adds the following capabilities:
 *
 *  - Mouse panning
 *  - Mouse zooming (using the wheel)
 *  - Object dargging
 *
 * Known issues:
 *
 *  - Zooming (while panning) on Safari has still some issues
 *
 * Releases:
 *
 * 1.2, Sat Mar 20 08:42:50 GMT 2010, Zeng Xiaohui
 *	Fixed a bug with browser mouse handler interaction
 *
 * 1.1, Wed Feb  3 17:39:33 GMT 2010, Zeng Xiaohui
 *	Updated the zoom code to support the mouse wheel on Safari/Chrome
 *
 * 1.0, Andrea Leofreddi
 *	First release
 *
 * This code is licensed under the following BSD license:
 *
 * Copyright 2009-2010 Andrea Leofreddi <a.leofreddi@itcharm.com>. All rights reserved.
 *
 * Redistribution and use in source and binary forms, with or without modification, are
 * permitted provided that the following conditions are met:
 *
 *    1. Redistributions of source code must retain the above copyright notice, this list of
 *       conditions and the following disclaimer.
 *
 *    2. Redistributions in binary form must reproduce the above copyright notice, this list
 *       of conditions and the following disclaimer in the documentation and/or other materials
 *       provided with the distribution.
 *
 * THIS SOFTWARE IS PROVIDED BY Andrea Leofreddi ``AS IS'' AND ANY EXPRESS OR IMPLIED
 * WARRANTIES, INCLUDING, BUT NOT LIMITED TO, THE IMPLIED WARRANTIES OF MERCHANTABILITY AND
 * FITNESS FOR A PARTICULAR PURPOSE ARE DISCLAIMED. IN NO EVENT SHALL Andrea Leofreddi OR
 * CONTRIBUTORS BE LIABLE FOR ANY DIRECT, INDIRECT, INCIDENTAL, SPECIAL, EXEMPLARY, OR
 * CONSEQUENTIAL DAMAGES (INCLUDING, BUT NOT LIMITED TO, PROCUREMENT OF SUBSTITUTE GOODS OR
 * SERVICES; LOSS OF USE, DATA, OR PROFITS; OR BUSINESS INTERRUPTION) HOWEVER CAUSED AND ON
 * ANY THEORY OF LIABILITY, WHETHER IN CONTRACT, STRICT LIABILITY, OR TORT (INCLUDING
 * NEGLIGENCE OR OTHERWISE) ARISING IN ANY WAY OUT OF THE USE OF THIS SOFTWARE, EVEN IF
 * ADVISED OF THE POSSIBILITY OF SUCH DAMAGE.
 *
 * The views and conclusions contained in the software and documentation are those of the
 * authors and should not be interpreted as representing official policies, either expressed
 * or implied, of Andrea Leofreddi.
 */

var root = document.documentElement;

var state = 'none', stateTarget, stateOrigin, stateTf;

setupHandlers(root);

/**
 * Register handlers
 */
function setupHandlers(root){
	setAttributes(root, {
		"onmouseup" : "add(evt)",
		"onmousedown" : "handleMouseDown(evt)",
		"onmousemove" : "handleMouseMove(evt)",
		"onmouseup" : "handleMouseUp(evt)",
		//"onmouseout" : "handleMouseUp(evt)", // Decomment this to stop the pan functionality when dragging out of the SVG element
	});

	if(navigator.userAgent.toLowerCase().indexOf('webkit') >= 0)
		window.addEventListener('mousewheel', handleMouseWheel, false); // Chrome/Safari
	else
		window.addEventListener('DOMMouseScroll', handleMouseWheel, false); // Others

	var g = svgDoc.getElementById("svg");
	g.width = "100%";
	g.height = "100%";
}

/**
 * Instance an SVGPoint object with given event coordinates.
 */
function getEventPoint(evt) {
	var p = root.createSVGPoint();

	p.x = evt.clientX;
	p.y = evt.clientY;

	return p;
}

/**
 * Sets the current transform matrix of an element.
 */
function setCTM(element, matrix) {
	var s = "matrix(" + matrix.a + "," + matrix.b + "," + matrix.c + "," + matrix.d + "," + matrix.e + "," + matrix.f + ")";

	element.setAttribute("transform", s);
}

/**
 * Dumps a matrix to a string (useful for debug).
 */
function dumpMatrix(matrix) {
	var s = "[ " + matrix.a + ", " + matrix.c + ", " + matrix.e + "\n  " + matrix.b + ", " + matrix.d + ", " + matrix.f + "\n  0, 0, 1 ]";

	return s;
}

/**
 * Sets attributes of an element.
 */
function setAttributes(element, attributes){
	for (i in attributes)
		element.setAttributeNS(null, i, attributes[i]);
}

/**
 * Handle mouse move event.
 */
function handleMouseWheel(evt) {
	if(evt.preventDefault)
		evt.preventDefault();

	evt.returnValue = false;

	var svgDoc = evt.target.ownerDocument;

	var delta;

	if(evt.wheelDelta)
		delta = evt.wheelDelta / 3600; // Chrome/Safari
	else
		delta = evt.detail / -90; // Mozilla

	var z = 1 + delta; // Zoom factor: 0.9/1.1

	var g = svgDoc.getElementById("viewport");

	var p = getEventPoint(evt);

	p = p.matrixTransform(g.getCTM().inverse());

	// Compute new scale matrix in current mouse position
	var k = root.createSVGMatrix().translate(p.x, p.y).scale(z).translate(-p.x, -p.y);

        setCTM(g, g.getCTM().multiply(k));

	stateTf = stateTf.multiply(k.inverse());
}

/**
 * Handle mouse move event.
 */
function handleMouseMove(evt) {
	if(evt.preventDefault)
		evt.preventDefault();

	evt.returnValue = false;

	var svgDoc = evt.target.ownerDocument;

	var g = svgDoc.getElementById("viewport");

	if(state == 'pan') {
		// Pan mode
		var p = getEventPoint(evt).matrixTransform(stateTf);

		setCTM(g, stateTf.inverse().translate(p.x - stateOrigin.x, p.y - stateOrigin.y));
	} else if(state == 'move') {
		// Move mode
		var p = getEventPoint(evt).matrixTransform(g.getCTM().inverse());

		setCTM(stateTarget, root.createSVGMatrix().translate(p.x - stateOrigin.x, p.y - stateOrigin.y).multiply(g.getCTM().inverse()).multiply(stateTarget.getCTM()));

		stateOrigin = p;
	}
}

/**
 * Handle click event.
 */
function handleMouseDown(evt) {
	if(evt.preventDefault)
		evt.preventDefault();

	evt.returnValue = false;

	var svgDoc = evt.target.ownerDocument;

	var g = svgDoc.getElementById("viewport");

	if(true || evt.target.tagName == "svg") {
		// Pan mode
		state = 'pan';

		stateTf = g.getCTM().inverse();

		stateOrigin = getEventPoint(evt).matrixTransform(stateTf);
	} else {
		// Move mode
		state = 'move';

		stateTarget = evt.target;

		stateTf = g.getCTM().inverse();

		stateOrigin = getEventPoint(evt).matrixTransform(stateTf);
	}
}

/**
 * Handle mouse button release event.
 */
function handleMouseUp(evt) {
	if(evt.preventDefault)
		evt.preventDefault();

	evt.returnValue = false;

	var svgDoc = evt.target.ownerDocument;

	if(state == 'pan' || state == 'move') {
		// Quit pan mode
		state = '';
	}
}

]]></script>
<g id="viewport" transform="translate(0,0)">
<g id="viewport" class="graph" transform="scale(1 1) rotate(0) translate(4 2018.75)">
<title>./main&#45;pprof; 292 samples</title>
<polygon fill="white" stroke="none" points="-4,4 -4,-2018.75 2712.88,-2018.75 2712.88,4 -4,4"/>
<!-- Legend -->
<g id="node1" class="node">
<title>Legend</title>
<text text-anchor="start" x="842.75" y="-1987.95" font-family="Times,serif" font-size="24.00">./main&#45;pprof</text>
<text text-anchor="start" x="842.75" y="-1960.95" font-family="Times,serif" font-size="24.00">Total samples: 292</text>
<text text-anchor="start" x="842.75" y="-1933.95" font-family="Times,serif" font-size="24.00">Focusing on: 292</text>
<text text-anchor="start" x="842.75" y="-1906.95" font-family="Times,serif" font-size="24.00">Dropped nodes with &lt;= 1 abs(samples)</text>
<text text-anchor="start" x="842.75" y="-1879.95" font-family="Times,serif" font-size="24.00">Dropped edges with &lt;= 0 samples</text>
</g>
<!-- N1 -->
<g id="node2" class="node">
<title>N1</title>
<polygon fill="none" stroke="black" points="1327,-1074 1262.25,-1074 1262.25,-1036.75 1327,-1036.75 1327,-1074"/>
<text text-anchor="middle" x="1294.62" y="-1062.4" font-family="Times,serif" font-size="8.00">bench</text>
<text text-anchor="end" x="1319" y="-1052.65" font-family="Times,serif" font-size="8.00">0 (0.0%)</text>
<text text-anchor="end" x="1319" y="-1042.9" font-family="Times,serif" font-size="8.00">of 268 (91.8%)</text>
</g>
<!-- N15 -->
<g id="node16" class="node">
<title>N15</title>
<polygon fill="none" stroke="black" points="1327,-964.75 1262.25,-964.75 1262.25,-927.5 1327,-927.5 1327,-964.75"/>
<text text-anchor="middle" x="1294.62" y="-953.15" font-family="Times,serif" font-size="8.00">sum2</text>
<text text-anchor="end" x="1319" y="-943.4" font-family="Times,serif" font-size="8.00">0 (0.0%)</text>
<text text-anchor="end" x="1319" y="-933.65" font-family="Times,serif" font-size="8.00">of 136 (46.6%)</text>
</g>
<!-- N1&#45;&gt;N15 -->
<g id="edge12" class="edge">
<title>N1&#45;&gt;N15</title>
<path fill="none" stroke="black" stroke-width="2" d="M1294.62,-1036.66C1294.62,-1020.38 1294.62,-995.93 1294.62,-976.69"/>
<polygon fill="black" stroke="black" stroke-width="2" points="1298.13,-978.25 1294.63,-968.25 1291.13,-978.25 1298.13,-978.25"/>
<text text-anchor="middle" x="1304.75" y="-995.7" font-family="Times,serif" font-size="14.00">136</text>
</g>
<!-- N16 -->
<g id="node17" class="node">
<title>N16</title>
<polygon fill="none" stroke="black" points="1233.12,-964.75 1172.12,-964.75 1172.12,-927.5 1233.12,-927.5 1233.12,-964.75"/>
<text text-anchor="middle" x="1202.62" y="-953.15" font-family="Times,serif" font-size="8.00">sum1</text>
<text text-anchor="end" x="1225.12" y="-943.4" font-family="Times,serif" font-size="8.00">0 (0.0%)</text>
<text text-anchor="end" x="1225.12" y="-933.65" font-family="Times,serif" font-size="8.00">of 96 (32.9%)</text>
</g>
<!-- N1&#45;&gt;N16 -->
<g id="edge15" class="edge">
<title>N1&#45;&gt;N16</title>
<path fill="none" stroke="black" stroke-width="1.97" d="M1279.43,-1036.66C1264.74,-1019.54 1242.28,-993.36 1225.44,-973.72"/>
<polygon fill="black" stroke="black" stroke-width="1.97" points="1229.26,-972.8 1220.09,-967.49 1223.95,-977.35 1229.26,-972.8"/>
<text text-anchor="middle" x="1260.88" y="-995.7" font-family="Times,serif" font-size="14.00">96</text>
</g>
<!-- N19 -->
<g id="node20" class="node">
<title>N19</title>
<polygon fill="none" stroke="black" points="1977.12,-964.75 1916.12,-964.75 1916.12,-927.5 1977.12,-927.5 1977.12,-964.75"/>
<text text-anchor="middle" x="1946.62" y="-953.15" font-family="Times,serif" font-size="8.00">sum3</text>
<text text-anchor="end" x="1969.12" y="-943.4" font-family="Times,serif" font-size="8.00">0 (0.0%)</text>
<text text-anchor="end" x="1969.12" y="-933.65" font-family="Times,serif" font-size="8.00">of 36 (12.3%)</text>
</g>
<!-- N1&#45;&gt;N19 -->
<g id="edge17" class="edge">
<title>N1&#45;&gt;N19</title>
<path fill="none" stroke="black" d="M1327.4,-1048.98C1435.87,-1031.14 1783.09,-974.03 1904.35,-954.08"/>
<polygon fill="black" stroke="black" points="1904.9,-957.54 1914.2,-952.46 1903.76,-950.63 1904.9,-957.54"/>
<text text-anchor="middle" x="1666.41" y="-995.7" font-family="Times,serif" font-size="14.00">36</text>
</g>
<!-- N2 -->
<g id="node3" class="node">
<title>N2</title>
<polygon fill="none" stroke="black" points="1402,-865.25 1187.25,-865.25 1187.25,-710.25 1402,-710.25 1402,-865.25"/>
<text text-anchor="middle" x="1294.62" y="-830.57" font-family="Times,serif" font-size="32.30">std</text>
<text text-anchor="middle" x="1294.62" y="-793.82" font-family="Times,serif" font-size="32.30">accumulate</text>
<text text-anchor="end" x="1394" y="-757.07" font-family="Times,serif" font-size="32.30">69 (23.6%)</text>
<text text-anchor="end" x="1394" y="-720.32" font-family="Times,serif" font-size="32.30">of 161 (55.1%)</text>
</g>
<!-- N17 -->
<g id="node18" class="node">
<title>N17</title>
<polygon fill="none" stroke="black" points="2556.62,-638.25 2390.62,-638.25 2390.62,-564.25 2556.62,-564.25 2556.62,-638.25"/>
<text text-anchor="middle" x="2473.62" y="-606.42" font-family="Times,serif" font-size="29.30">add_doubles</text>
<text text-anchor="end" x="2548.62" y="-573.42" font-family="Times,serif" font-size="29.30">53 (18.2%)</text>
</g>
<!-- N2&#45;&gt;N17 -->
<g id="edge18" class="edge">
<title>N2&#45;&gt;N17</title>
<path fill="none" stroke="black" d="M1402.16,-715.14C1406.63,-713.33 1411.13,-711.69 1415.62,-710.25 1466.82,-693.9 2330.26,-673.56 2381.62,-657.75 2392.32,-654.46 2403.06,-649.66 2413.23,-644.24"/>
<polygon fill="black" stroke="black" points="2414.86,-647.34 2421.87,-639.39 2411.43,-641.24 2414.86,-647.34"/>
<text text-anchor="middle" x="2092.95" y="-678.95" font-family="Times,serif" font-size="14.00">33</text>
</g>
<!-- N18 -->
<g id="node19" class="node">
<title>N18</title>
<polygon fill="none" stroke="black" points="2171.88,-636 417.38,-636 417.38,-566.5 2171.88,-566.5 2171.88,-636"/>
<text text-anchor="middle" x="1294.62" y="-605.97" font-family="Times,serif" font-size="27.40">_ZN9__gnu_cxxeqIPKdSt6vectorIdSaIdEEEEbRKNS_17__normal_iteratorIT_T0_EESB_QrqXeqcldtfL0p_4baseEcldtfL0p0_4baseERSt14convertible_toIbEE</text>
<text text-anchor="end" x="2163.88" y="-575.22" font-family="Times,serif" font-size="27.40">44 (15.1%)</text>
</g>
<!-- N2&#45;&gt;N18 -->
<g id="edge29" class="edge">
<title>N2&#45;&gt;N18</title>
<path fill="none" stroke="black" d="M1294.62,-709.84C1294.62,-688.65 1294.62,-666.35 1294.62,-647.58"/>
<polygon fill="black" stroke="black" points="1298.13,-647.62 1294.63,-637.62 1291.13,-647.62 1298.13,-647.62"/>
<text text-anchor="middle" x="1301.38" y="-678.95" font-family="Times,serif" font-size="14.00">24</text>
</g>
<!-- N21 -->
<g id="node22" class="node">
<title>N21</title>
<polygon fill="none" stroke="black" points="2372.88,-657.75 2190.38,-657.75 2190.38,-544.75 2372.88,-544.75 2372.88,-657.75"/>
<text text-anchor="middle" x="2281.62" y="-631.71" font-family="Times,serif" font-size="23.20">__gnu_cxx</text>
<text text-anchor="middle" x="2281.62" y="-605.46" font-family="Times,serif" font-size="23.20">__normal_iterator</text>
<text text-anchor="middle" x="2281.62" y="-579.21" font-family="Times,serif" font-size="23.20">base</text>
<text text-anchor="end" x="2364.88" y="-552.96" font-family="Times,serif" font-size="23.20">27 (9.2%)</text>
</g>
<!-- N2&#45;&gt;N21 -->
<g id="edge21" class="edge">
<title>N2&#45;&gt;N21</title>
<path fill="none" stroke="black" d="M1327.79,-709.99C1337.21,-696.35 1348.88,-683.91 1363.12,-675.75 1400.78,-654.19 2072.19,-668.14 2178.75,-656.72"/>
<polygon fill="black" stroke="black" points="2179.1,-660.21 2188.42,-655.18 2177.99,-653.3 2179.1,-660.21"/>
<text text-anchor="middle" x="1369.88" y="-678.95" font-family="Times,serif" font-size="14.00">24</text>
</g>
<!-- N22 -->
<g id="node23" class="node">
<title>N22</title>
<polygon fill="none" stroke="black" points="285.88,-656.25 109.38,-656.25 109.38,-546.25 285.88,-546.25 285.88,-656.25"/>
<text text-anchor="middle" x="197.62" y="-631.07" font-family="Times,serif" font-size="22.30">__gnu_cxx</text>
<text text-anchor="middle" x="197.62" y="-605.57" font-family="Times,serif" font-size="22.30">__normal_iterator</text>
<text text-anchor="middle" x="197.62" y="-580.07" font-family="Times,serif" font-size="22.30">operator++</text>
<text text-anchor="end" x="277.88" y="-554.57" font-family="Times,serif" font-size="22.30">24 (8.2%)</text>
</g>
<!-- N2&#45;&gt;N22 -->
<g id="edge34" class="edge">
<title>N2&#45;&gt;N22</title>
<path fill="none" stroke="black" d="M1186.93,-715.62C1182.5,-713.67 1178.06,-711.87 1173.62,-710.25 1120.95,-691 979.51,-680.39 923.62,-675.75 856.74,-670.19 400.65,-676.16 297.26,-657.56"/>
<polygon fill="black" stroke="black" points="298.22,-654.19 287.69,-655.43 296.69,-661.02 298.22,-654.19"/>
<text text-anchor="middle" x="1091.44" y="-678.95" font-family="Times,serif" font-size="14.00">10</text>
</g>
<!-- N32 -->
<g id="node33" class="node">
<title>N32</title>
<polygon fill="none" stroke="black" points="399.38,-639 303.88,-639 303.88,-563.5 399.38,-563.5 399.38,-639"/>
<text text-anchor="middle" x="351.62" y="-615.9" font-family="Times,serif" font-size="20.10">std</text>
<text text-anchor="middle" x="351.62" y="-593.4" font-family="Times,serif" font-size="20.10">move</text>
<text text-anchor="end" x="391.38" y="-570.9" font-family="Times,serif" font-size="20.10">17 (5.8%)</text>
</g>
<!-- N2&#45;&gt;N32 -->
<g id="edge46" class="edge">
<title>N2&#45;&gt;N32</title>
<path fill="none" stroke="black" d="M1198.04,-709.97C1175.75,-696.05 1151.3,-683.51 1126.62,-675.75 1050.49,-651.83 482.17,-688.72 408.62,-657.75 402.11,-655.01 395.92,-651.14 390.19,-646.71"/>
<polygon fill="black" stroke="black" points="392.61,-644.17 382.73,-640.35 388.07,-649.5 392.61,-644.17"/>
<text text-anchor="middle" x="1165.48" y="-678.95" font-family="Times,serif" font-size="14.00">1</text>
</g>
<!-- N3 -->
<g id="node4" class="node">
<title>N3</title>
<polygon fill="none" stroke="black" points="1243.75,-1277.88 1117.5,-1277.88 1117.5,-1240.62 1243.75,-1240.62 1243.75,-1277.88"/>
<text text-anchor="middle" x="1180.62" y="-1266.28" font-family="Times,serif" font-size="8.00">__libc_init_first@@GLIBC_2.2.5</text>
<text text-anchor="end" x="1235.75" y="-1256.53" font-family="Times,serif" font-size="8.00">0 (0.0%)</text>
<text text-anchor="end" x="1235.75" y="-1246.78" font-family="Times,serif" font-size="8.00">of 151 (51.7%)</text>
</g>
<!-- N6 -->
<g id="node7" class="node">
<title>N6</title>
<polygon fill="none" stroke="black" points="1213,-1178.38 1148.25,-1178.38 1148.25,-1141.12 1213,-1141.12 1213,-1178.38"/>
<text text-anchor="middle" x="1180.62" y="-1166.78" font-family="Times,serif" font-size="8.00">main</text>
<text text-anchor="end" x="1205" y="-1157.03" font-family="Times,serif" font-size="8.00">0 (0.0%)</text>
<text text-anchor="end" x="1205" y="-1147.28" font-family="Times,serif" font-size="8.00">of 151 (51.7%)</text>
</g>
<!-- N3&#45;&gt;N6 -->
<g id="edge3" class="edge">
<title>N3&#45;&gt;N6</title>
<path fill="none" stroke="black" stroke-width="2" d="M1180.62,-1240.37C1180.62,-1226.3 1180.62,-1206.41 1180.62,-1190.02"/>
<polygon fill="black" stroke="black" stroke-width="2" points="1184.13,-1191.88 1180.63,-1181.88 1177.13,-1191.88 1184.13,-1191.88"/>
<text text-anchor="middle" x="1190.75" y="-1204.45" font-family="Times,serif" font-size="14.00">151</text>
</g>
<!-- N4 -->
<g id="node5" class="node">
<title>N4</title>
<polygon fill="none" stroke="black" points="1243,-1387.12 1118.25,-1387.12 1118.25,-1349.88 1243,-1349.88 1243,-1387.12"/>
<text text-anchor="middle" x="1180.62" y="-1375.53" font-family="Times,serif" font-size="8.00">__libc_start_main@GLIBC_2.2.5</text>
<text text-anchor="end" x="1235" y="-1365.78" font-family="Times,serif" font-size="8.00">0 (0.0%)</text>
<text text-anchor="end" x="1235" y="-1356.03" font-family="Times,serif" font-size="8.00">of 151 (51.7%)</text>
</g>
<!-- N4&#45;&gt;N3 -->
<g id="edge2" class="edge">
<title>N4&#45;&gt;N3</title>
<path fill="none" stroke="black" stroke-width="2" d="M1180.62,-1349.79C1180.62,-1333.51 1180.62,-1309.05 1180.62,-1289.81"/>
<polygon fill="black" stroke="black" stroke-width="2" points="1184.13,-1291.37 1180.63,-1281.37 1177.13,-1291.37 1184.13,-1291.37"/>
<text text-anchor="middle" x="1190.75" y="-1303.95" font-family="Times,serif" font-size="14.00">151</text>
</g>
<!-- N5 -->
<g id="node6" class="node">
<title>N5</title>
<polygon fill="none" stroke="black" points="1213,-1506.12 1148.25,-1506.12 1148.25,-1468.88 1213,-1468.88 1213,-1506.12"/>
<text text-anchor="middle" x="1180.62" y="-1494.53" font-family="Times,serif" font-size="8.00">_start</text>
<text text-anchor="end" x="1205" y="-1484.78" font-family="Times,serif" font-size="8.00">0 (0.0%)</text>
<text text-anchor="end" x="1205" y="-1475.03" font-family="Times,serif" font-size="8.00">of 151 (51.7%)</text>
</g>
<!-- N5&#45;&gt;N4 -->
<g id="edge1" class="edge">
<title>N5&#45;&gt;N4</title>
<path fill="none" stroke="black" stroke-width="2" d="M1180.62,-1468.48C1180.62,-1449.87 1180.62,-1420.55 1180.62,-1398.65"/>
<polygon fill="black" stroke="black" stroke-width="2" points="1184.13,-1400.38 1180.63,-1390.38 1177.13,-1400.38 1184.13,-1400.38"/>
<text text-anchor="middle" x="1190.75" y="-1422.95" font-family="Times,serif" font-size="14.00">151</text>
</g>
<!-- N6&#45;&gt;N1 -->
<g id="edge13" class="edge">
<title>N6&#45;&gt;N1</title>
<path fill="none" stroke="black" stroke-width="2" d="M1200.74,-1140.68C1218.9,-1124.38 1245.79,-1100.23 1266.15,-1081.95"/>
<polygon fill="black" stroke="black" stroke-width="2" points="1267.35,-1085.57 1272.46,-1076.28 1262.68,-1080.36 1267.35,-1085.57"/>
<text text-anchor="middle" x="1251.17" y="-1104.95" font-family="Times,serif" font-size="14.00">127</text>
</g>
<!-- N31 -->
<g id="node32" class="node">
<title>N31</title>
<polygon fill="none" stroke="black" points="843.25,-1083.75 786,-1083.75 786,-1027 843.25,-1027 843.25,-1083.75"/>
<text text-anchor="middle" x="814.62" y="-1072.15" font-family="Times,serif" font-size="8.00">std</text>
<text text-anchor="middle" x="814.62" y="-1062.4" font-family="Times,serif" font-size="8.00">vector</text>
<text text-anchor="middle" x="814.62" y="-1052.65" font-family="Times,serif" font-size="8.00">vector</text>
<text text-anchor="end" x="835.25" y="-1042.9" font-family="Times,serif" font-size="8.00">0 (0.0%)</text>
<text text-anchor="end" x="835.25" y="-1033.15" font-family="Times,serif" font-size="8.00">of 24 (8.2%)</text>
</g>
<!-- N6&#45;&gt;N31 -->
<g id="edge30" class="edge">
<title>N6&#45;&gt;N31</title>
<path fill="none" stroke="black" d="M1147.82,-1149.57C1080.62,-1130.78 927.5,-1087.95 854.62,-1067.56"/>
<polygon fill="black" stroke="black" points="855.67,-1064.22 845.09,-1064.9 853.78,-1070.96 855.67,-1064.22"/>
<text text-anchor="middle" x="1037.16" y="-1104.95" font-family="Times,serif" font-size="14.00">24</text>
</g>
<!-- N7 -->
<g id="node8" class="node">
<title>N7</title>
<polygon fill="none" stroke="black" points="1344.62,-1961.88 1244.62,-1961.88 1244.62,-1924.62 1344.62,-1924.62 1344.62,-1961.88"/>
<text text-anchor="middle" x="1294.62" y="-1950.28" font-family="Times,serif" font-size="8.00">__clone@@GLIBC_2.2.5</text>
<text text-anchor="end" x="1336.62" y="-1940.53" font-family="Times,serif" font-size="8.00">0 (0.0%)</text>
<text text-anchor="end" x="1336.62" y="-1930.78" font-family="Times,serif" font-size="8.00">of 141 (48.3%)</text>
</g>
<!-- N9 -->
<g id="node10" class="node">
<title>N9</title>
<polygon fill="none" stroke="black" points="1374.25,-1819.25 1215,-1819.25 1215,-1782 1374.25,-1782 1374.25,-1819.25"/>
<text text-anchor="middle" x="1294.62" y="-1807.65" font-family="Times,serif" font-size="8.00">pthread_condattr_setpshared@GLIBC_2.2.5</text>
<text text-anchor="end" x="1366.25" y="-1797.9" font-family="Times,serif" font-size="8.00">0 (0.0%)</text>
<text text-anchor="end" x="1366.25" y="-1788.15" font-family="Times,serif" font-size="8.00">of 141 (48.3%)</text>
</g>
<!-- N7&#45;&gt;N9 -->
<g id="edge8" class="edge">
<title>N7&#45;&gt;N9</title>
<path fill="none" stroke="black" stroke-width="2" d="M1294.62,-1924.15C1294.62,-1900.63 1294.62,-1859.25 1294.62,-1831.15"/>
<polygon fill="black" stroke="black" stroke-width="2" points="1298.13,-1832.68 1294.63,-1822.68 1291.13,-1832.68 1298.13,-1832.68"/>
<text text-anchor="middle" x="1304.75" y="-1840.45" font-family="Times,serif" font-size="14.00">141</text>
</g>
<!-- N8 -->
<g id="node9" class="node">
<title>N8</title>
<polygon fill="none" stroke="black" points="1351.75,-1729.5 1237.5,-1729.5 1237.5,-1692.25 1351.75,-1692.25 1351.75,-1729.5"/>
<text text-anchor="middle" x="1294.62" y="-1717.9" font-family="Times,serif" font-size="8.00">execute_native_thread_routine</text>
<text text-anchor="end" x="1343.75" y="-1708.15" font-family="Times,serif" font-size="8.00">0 (0.0%)</text>
<text text-anchor="end" x="1343.75" y="-1698.4" font-family="Times,serif" font-size="8.00">of 141 (48.3%)</text>
</g>
<!-- N14 -->
<g id="node15" class="node">
<title>N14</title>
<polygon fill="none" stroke="black" points="1327,-1639.75 1262.25,-1639.75 1262.25,-1573.25 1327,-1573.25 1327,-1639.75"/>
<text text-anchor="middle" x="1294.62" y="-1628.15" font-family="Times,serif" font-size="8.00">std</text>
<text text-anchor="middle" x="1294.62" y="-1618.4" font-family="Times,serif" font-size="8.00">thread</text>
<text text-anchor="middle" x="1294.62" y="-1608.65" font-family="Times,serif" font-size="8.00">_State_impl</text>
<text text-anchor="middle" x="1294.62" y="-1598.9" font-family="Times,serif" font-size="8.00">_M_run</text>
<text text-anchor="end" x="1319" y="-1589.15" font-family="Times,serif" font-size="8.00">0 (0.0%)</text>
<text text-anchor="end" x="1319" y="-1579.4" font-family="Times,serif" font-size="8.00">of 141 (48.3%)</text>
</g>
<!-- N8&#45;&gt;N14 -->
<g id="edge4" class="edge">
<title>N8&#45;&gt;N14</title>
<path fill="none" stroke="black" stroke-width="2" d="M1294.62,-1692.04C1294.62,-1680.74 1294.62,-1665.6 1294.62,-1651.25"/>
<polygon fill="black" stroke="black" stroke-width="2" points="1298.13,-1653.03 1294.63,-1643.03 1291.13,-1653.03 1298.13,-1653.03"/>
<text text-anchor="middle" x="1304.75" y="-1660.95" font-family="Times,serif" font-size="14.00">141</text>
</g>
<!-- N9&#45;&gt;N8 -->
<g id="edge10" class="edge">
<title>N9&#45;&gt;N8</title>
<path fill="none" stroke="black" stroke-width="2" d="M1294.62,-1781.87C1294.62,-1770.17 1294.62,-1754.58 1294.62,-1741.08"/>
<polygon fill="black" stroke="black" stroke-width="2" points="1298.13,-1742.93 1294.63,-1732.93 1291.13,-1742.93 1298.13,-1742.93"/>
<text text-anchor="middle" x="1304.75" y="-1750.7" font-family="Times,serif" font-size="14.00">141</text>
</g>
<!-- N10 -->
<g id="node11" class="node">
<title>N10</title>
<polygon fill="none" stroke="black" points="1327,-1282.75 1262.25,-1282.75 1262.25,-1235.75 1327,-1235.75 1327,-1282.75"/>
<text text-anchor="middle" x="1294.62" y="-1271.15" font-family="Times,serif" font-size="8.00">std</text>
<text text-anchor="middle" x="1294.62" y="-1261.4" font-family="Times,serif" font-size="8.00">__invoke</text>
<text text-anchor="end" x="1319" y="-1251.65" font-family="Times,serif" font-size="8.00">0 (0.0%)</text>
<text text-anchor="end" x="1319" y="-1241.9" font-family="Times,serif" font-size="8.00">of 141 (48.3%)</text>
</g>
<!-- N11 -->
<g id="node12" class="node">
<title>N11</title>
<polygon fill="none" stroke="black" points="1327,-1183.25 1262.25,-1183.25 1262.25,-1136.25 1327,-1136.25 1327,-1183.25"/>
<text text-anchor="middle" x="1294.62" y="-1171.65" font-family="Times,serif" font-size="8.00">std</text>
<text text-anchor="middle" x="1294.62" y="-1161.9" font-family="Times,serif" font-size="8.00">__invoke_impl</text>
<text text-anchor="end" x="1319" y="-1152.15" font-family="Times,serif" font-size="8.00">0 (0.0%)</text>
<text text-anchor="end" x="1319" y="-1142.4" font-family="Times,serif" font-size="8.00">of 141 (48.3%)</text>
</g>
<!-- N10&#45;&gt;N11 -->
<g id="edge7" class="edge">
<title>N10&#45;&gt;N11</title>
<path fill="none" stroke="black" stroke-width="2" d="M1294.62,-1235.64C1294.62,-1223.54 1294.62,-1208.4 1294.62,-1194.9"/>
<polygon fill="black" stroke="black" stroke-width="2" points="1298.13,-1196.61 1294.63,-1186.61 1291.13,-1196.61 1298.13,-1196.61"/>
<text text-anchor="middle" x="1304.75" y="-1204.45" font-family="Times,serif" font-size="14.00">141</text>
</g>
<!-- N11&#45;&gt;N1 -->
<g id="edge5" class="edge">
<title>N11&#45;&gt;N1</title>
<path fill="none" stroke="black" stroke-width="2" d="M1294.62,-1135.78C1294.62,-1120.93 1294.62,-1101.48 1294.62,-1085.55"/>
<polygon fill="black" stroke="black" stroke-width="2" points="1298.13,-1087.21 1294.63,-1077.21 1291.13,-1087.21 1298.13,-1087.21"/>
<text text-anchor="middle" x="1304.75" y="-1104.95" font-family="Times,serif" font-size="14.00">141</text>
</g>
<!-- N12 -->
<g id="node13" class="node">
<title>N12</title>
<polygon fill="none" stroke="black" points="1327,-1401.75 1262.25,-1401.75 1262.25,-1335.25 1327,-1335.25 1327,-1401.75"/>
<text text-anchor="middle" x="1294.62" y="-1390.15" font-family="Times,serif" font-size="8.00">std</text>
<text text-anchor="middle" x="1294.62" y="-1380.4" font-family="Times,serif" font-size="8.00">thread</text>
<text text-anchor="middle" x="1294.62" y="-1370.65" font-family="Times,serif" font-size="8.00">_Invoker</text>
<text text-anchor="middle" x="1294.62" y="-1360.9" font-family="Times,serif" font-size="8.00">_M_invoke</text>
<text text-anchor="end" x="1319" y="-1351.15" font-family="Times,serif" font-size="8.00">0 (0.0%)</text>
<text text-anchor="end" x="1319" y="-1341.4" font-family="Times,serif" font-size="8.00">of 141 (48.3%)</text>
</g>
<!-- N12&#45;&gt;N10 -->
<g id="edge9" class="edge">
<title>N12&#45;&gt;N10</title>
<path fill="none" stroke="black" stroke-width="2" d="M1294.62,-1335.03C1294.62,-1322.19 1294.62,-1307.42 1294.62,-1294.42"/>
<polygon fill="black" stroke="black" stroke-width="2" points="1298.13,-1296.11 1294.63,-1286.11 1291.13,-1296.11 1298.13,-1296.11"/>
<text text-anchor="middle" x="1304.75" y="-1303.95" font-family="Times,serif" font-size="14.00">141</text>
</g>
<!-- N13 -->
<g id="node14" class="node">
<title>N13</title>
<polygon fill="none" stroke="black" points="1327,-1520.75 1262.25,-1520.75 1262.25,-1454.25 1327,-1454.25 1327,-1520.75"/>
<text text-anchor="middle" x="1294.62" y="-1509.15" font-family="Times,serif" font-size="8.00">std</text>
<text text-anchor="middle" x="1294.62" y="-1499.4" font-family="Times,serif" font-size="8.00">thread</text>
<text text-anchor="middle" x="1294.62" y="-1489.65" font-family="Times,serif" font-size="8.00">_Invoker</text>
<text text-anchor="middle" x="1294.62" y="-1479.9" font-family="Times,serif" font-size="8.00">operator</text>
<text text-anchor="end" x="1319" y="-1470.15" font-family="Times,serif" font-size="8.00">0 (0.0%)</text>
<text text-anchor="end" x="1319" y="-1460.4" font-family="Times,serif" font-size="8.00">of 141 (48.3%)</text>
</g>
<!-- N13&#45;&gt;N12 -->
<g id="edge6" class="edge">
<title>N13&#45;&gt;N12</title>
<path fill="none" stroke="black" stroke-width="2" d="M1294.62,-1453.91C1294.62,-1441.36 1294.62,-1426.81 1294.62,-1413.37"/>
<polygon fill="black" stroke="black" stroke-width="2" points="1298.13,-1414.94 1294.63,-1404.94 1291.13,-1414.94 1298.13,-1414.94"/>
<text text-anchor="middle" x="1304.75" y="-1422.95" font-family="Times,serif" font-size="14.00">141</text>
</g>
<!-- N14&#45;&gt;N13 -->
<g id="edge11" class="edge">
<title>N14&#45;&gt;N13</title>
<path fill="none" stroke="black" stroke-width="2" d="M1294.62,-1572.91C1294.62,-1560.36 1294.62,-1545.81 1294.62,-1532.37"/>
<polygon fill="black" stroke="black" stroke-width="2" points="1298.13,-1533.94 1294.63,-1523.94 1291.13,-1533.94 1298.13,-1533.94"/>
<text text-anchor="middle" x="1304.75" y="-1541.95" font-family="Times,serif" font-size="14.00">141</text>
</g>
<!-- N15&#45;&gt;N2 -->
<g id="edge14" class="edge">
<title>N15&#45;&gt;N2</title>
<path fill="none" stroke="black" stroke-width="2" d="M1294.62,-927.19C1294.62,-914.38 1294.62,-896.1 1294.62,-877"/>
<polygon fill="black" stroke="black" stroke-width="2" points="1298.13,-878.72 1294.63,-868.72 1291.13,-878.72 1298.13,-878.72"/>
<text text-anchor="middle" x="1301.38" y="-886.45" font-family="Times,serif" font-size="14.00">99</text>
</g>
<!-- N15&#45;&gt;N17 -->
<g id="edge32" class="edge">
<title>N15&#45;&gt;N17</title>
<path fill="none" stroke="black" d="M1327.42,-931.51C1454.64,-878.81 1911.79,-690.39 1980.62,-675.75 2067.88,-657.2 2296.25,-683.58 2381.62,-657.75 2392.34,-654.51 2403.08,-649.74 2413.26,-644.33"/>
<polygon fill="black" stroke="black" points="2414.88,-647.43 2421.9,-639.49 2411.46,-641.33 2414.88,-647.43"/>
<text text-anchor="middle" x="1885.27" y="-782.7" font-family="Times,serif" font-size="14.00">11</text>
</g>
<!-- N15&#45;&gt;N18 -->
<g id="edge35" class="edge">
<title>N15&#45;&gt;N18</title>
<path fill="none" stroke="black" d="M1327.34,-932.24C1354.69,-919.59 1392.11,-897.48 1410.62,-865.25 1452.67,-792.05 1466.04,-748.74 1423.62,-675.75 1416.14,-662.87 1405.47,-652.07 1393.42,-643.05"/>
<polygon fill="black" stroke="black" points="1395.43,-640.18 1385.22,-637.36 1391.44,-645.94 1395.43,-640.18"/>
<text text-anchor="middle" x="1452.93" y="-782.7" font-family="Times,serif" font-size="14.00">9</text>
</g>
<!-- N15&#45;&gt;N22 -->
<g id="edge36" class="edge">
<title>N15&#45;&gt;N22</title>
<path fill="none" stroke="black" d="M1264.27,-927.09C1257.34,-923.56 1249.87,-920.2 1242.62,-917.75 1176.07,-895.27 983.1,-912.24 930.88,-865.25 877.71,-817.41 942.63,-755.97 887.62,-710.25 788.47,-627.83 439.22,-693.81 296.97,-657.9"/>
<polygon fill="black" stroke="black" points="298.31,-654.65 287.74,-655.3 296.41,-661.38 298.31,-654.65"/>
<text text-anchor="middle" x="934.25" y="-782.7" font-family="Times,serif" font-size="14.00">8</text>
</g>
<!-- N15&#45;&gt;N32 -->
<g id="edge39" class="edge">
<title>N15&#45;&gt;N32</title>
<path fill="none" stroke="black" d="M1285.52,-927.2C1277.45,-913.12 1264.36,-894.15 1247.62,-883.25 1218.63,-864.37 1196.3,-889.76 1171.88,-865.25 1121.94,-815.13 1188.88,-756.82 1135.62,-710.25 1104.2,-682.77 988.33,-705.15 948.62,-692.25 934.89,-687.79 934.49,-679.79 920.62,-675.75 811.33,-643.87 513.33,-702.46 408.62,-657.75 402.12,-654.97 395.94,-651.09 390.21,-646.65"/>
<polygon fill="black" stroke="black" points="392.63,-644.11 382.76,-640.28 388.09,-649.43 392.63,-644.11"/>
<text text-anchor="middle" x="1175.25" y="-782.7" font-family="Times,serif" font-size="14.00">5</text>
</g>
<!-- N33 -->
<g id="node34" class="node">
<title>N33</title>
<polygon fill="none" stroke="black" points="1126.62,-830.75 984.62,-830.75 984.62,-744.75 1126.62,-744.75 1126.62,-830.75"/>
<text text-anchor="middle" x="1055.62" y="-810.32" font-family="Times,serif" font-size="17.30">__gnu_cxx</text>
<text text-anchor="middle" x="1055.62" y="-790.82" font-family="Times,serif" font-size="17.30">__normal_iterator</text>
<text text-anchor="middle" x="1055.62" y="-771.32" font-family="Times,serif" font-size="17.30">operator*</text>
<text text-anchor="end" x="1118.62" y="-751.82" font-family="Times,serif" font-size="17.30">10 (3.4%)</text>
</g>
<!-- N15&#45;&gt;N33 -->
<g id="edge43" class="edge">
<title>N15&#45;&gt;N33</title>
<path fill="none" stroke="black" d="M1274.42,-927.17C1255.95,-911.08 1229.73,-889.15 1217.62,-883.25 1186.03,-867.86 1171.78,-881.52 1140.62,-865.25 1127.3,-858.29 1114.43,-848.76 1102.9,-838.79"/>
<polygon fill="black" stroke="black" points="1105.26,-836.2 1095.48,-832.12 1100.58,-841.41 1105.26,-836.2"/>
<text text-anchor="middle" x="1244.32" y="-886.45" font-family="Times,serif" font-size="14.00">4</text>
</g>
<!-- N16&#45;&gt;N2 -->
<g id="edge16" class="edge">
<title>N16&#45;&gt;N2</title>
<path fill="none" stroke="black" stroke-width="1.27" d="M1199.71,-927.08C1198.44,-914.34 1198.35,-897.14 1204.12,-883.25 1205.23,-880.59 1206.45,-877.96 1207.77,-875.36"/>
<polygon fill="black" stroke="black" stroke-width="1.27" points="1210.5,-877.65 1212.36,-867.22 1204.4,-874.21 1210.5,-877.65"/>
<text text-anchor="middle" x="1210.88" y="-886.45" font-family="Times,serif" font-size="14.00">62</text>
</g>
<!-- N16&#45;&gt;N18 -->
<g id="edge31" class="edge">
<title>N16&#45;&gt;N18</title>
<path fill="none" stroke="black" d="M1171.83,-945.43C1118.68,-944.08 1010.78,-932.68 962.12,-865.25 921.81,-809.39 951.09,-778.25 962.12,-710.25 964.71,-694.3 961.66,-686.61 973.62,-675.75 989.38,-661.45 1023.1,-649.25 1063.02,-639.14"/>
<polygon fill="black" stroke="black" points="1063.8,-642.56 1072.67,-636.78 1062.13,-635.76 1063.8,-642.56"/>
<text text-anchor="middle" x="968.88" y="-782.7" font-family="Times,serif" font-size="14.00">11</text>
</g>
<!-- N16&#45;&gt;N22 -->
<g id="edge38" class="edge">
<title>N16&#45;&gt;N22</title>
<path fill="none" stroke="black" d="M1171.64,-941.01C1117.37,-933.66 1001.68,-917.41 904.62,-899.75 831.88,-886.51 810.49,-892.79 741.88,-865.25 620.46,-816.51 611.74,-762.1 491.62,-710.25 411.68,-675.74 380.85,-690.89 296.76,-658.35"/>
<polygon fill="black" stroke="black" points="298.23,-655.16 287.64,-654.7 295.63,-661.66 298.23,-655.16"/>
<text text-anchor="middle" x="745.25" y="-782.7" font-family="Times,serif" font-size="14.00">6</text>
</g>
<!-- N16&#45;&gt;N32 -->
<g id="edge33" class="edge">
<title>N16&#45;&gt;N32</title>
<path fill="none" stroke="black" d="M1171.86,-940.28C1127.94,-933.08 1044.91,-918.36 975.62,-899.75 929.61,-887.39 913.94,-891.42 874.12,-865.25 779.2,-802.86 805,-724.97 702.62,-675.75 643.63,-647.39 468.48,-684.24 408.62,-657.75 402.24,-654.93 396.16,-651.05 390.5,-646.66"/>
<polygon fill="black" stroke="black" points="393.02,-644.21 383.14,-640.38 388.48,-649.53 393.02,-644.21"/>
<text text-anchor="middle" x="880.88" y="-782.7" font-family="Times,serif" font-size="14.00">11</text>
</g>
<!-- N16&#45;&gt;N33 -->
<g id="edge37" class="edge">
<title>N16&#45;&gt;N33</title>
<path fill="none" stroke="black" d="M1185.76,-927.19C1165.77,-905.92 1131.6,-869.57 1103.29,-839.45"/>
<polygon fill="black" stroke="black" points="1105.91,-837.13 1096.51,-832.24 1100.81,-841.92 1105.91,-837.13"/>
<text text-anchor="middle" x="1162.56" y="-886.45" font-family="Times,serif" font-size="14.00">6</text>
</g>
<!-- N19&#45;&gt;N17 -->
<g id="edge42" class="edge">
<title>N19&#45;&gt;N17</title>
<path fill="none" stroke="black" d="M1940.55,-927.26C1926.99,-883.76 1899.7,-771.42 1955.88,-710.25 2020.35,-640.04 2291.48,-688.74 2381.62,-657.75 2391.94,-654.2 2402.35,-649.38 2412.27,-644.05"/>
<polygon fill="black" stroke="black" points="2413.68,-647.27 2420.68,-639.31 2410.25,-641.17 2413.68,-647.27"/>
<text text-anchor="middle" x="1959.25" y="-782.7" font-family="Times,serif" font-size="14.00">4</text>
</g>
<!-- N20 -->
<g id="node21" class="node">
<title>N20</title>
<polygon fill="none" stroke="black" points="2085.75,-835.25 1971.5,-835.25 1971.5,-740.25 2085.75,-740.25 2085.75,-835.25"/>
<text text-anchor="middle" x="2028.62" y="-812.92" font-family="Times,serif" font-size="19.30">std</text>
<text text-anchor="middle" x="2028.62" y="-791.17" font-family="Times,serif" font-size="19.30">reduce</text>
<text text-anchor="end" x="2077.75" y="-769.42" font-family="Times,serif" font-size="19.30">15 (5.1%)</text>
<text text-anchor="end" x="2077.75" y="-747.67" font-family="Times,serif" font-size="19.30">of 28 (9.6%)</text>
</g>
<!-- N19&#45;&gt;N20 -->
<g id="edge19" class="edge">
<title>N19&#45;&gt;N20</title>
<path fill="none" stroke="black" d="M1956.03,-927.19C1966.46,-907.31 1983.79,-874.25 1998.91,-845.42"/>
<polygon fill="black" stroke="black" points="2001.9,-847.25 2003.45,-836.77 1995.7,-844 2001.9,-847.25"/>
<text text-anchor="middle" x="1984.62" y="-886.45" font-family="Times,serif" font-size="14.00">28</text>
</g>
<!-- N34 -->
<g id="node35" class="node">
<title>N34</title>
<polygon fill="none" stroke="black" points="2708.88,-642.75 2574.38,-642.75 2574.38,-559.75 2708.88,-559.75 2708.88,-642.75"/>
<text text-anchor="middle" x="2641.62" y="-623.27" font-family="Times,serif" font-size="16.30">__gnu_cxx</text>
<text text-anchor="middle" x="2641.62" y="-604.52" font-family="Times,serif" font-size="16.30">__normal_iterator</text>
<text text-anchor="middle" x="2641.62" y="-585.77" font-family="Times,serif" font-size="16.30">operator[]</text>
<text text-anchor="end" x="2700.88" y="-567.02" font-family="Times,serif" font-size="16.30">8 (2.7%)</text>
</g>
<!-- N19&#45;&gt;N34 -->
<g id="edge44" class="edge">
<title>N19&#45;&gt;N34</title>
<path fill="none" stroke="black" d="M1977.32,-933.38C2069.4,-897.61 2350.27,-784.71 2565.62,-657.75 2570.14,-655.09 2574.71,-652.23 2579.26,-649.25"/>
<polygon fill="black" stroke="black" points="2580.94,-652.34 2587.28,-643.86 2577.03,-646.53 2580.94,-652.34"/>
<text text-anchor="middle" x="2469.7" y="-782.7" font-family="Times,serif" font-size="14.00">3</text>
</g>
<!-- N20&#45;&gt;N17 -->
<g id="edge40" class="edge">
<title>N20&#45;&gt;N17</title>
<path fill="none" stroke="black" d="M2085.98,-756.31C2135.52,-731.22 2209.67,-696.5 2277.88,-675.75 2322.65,-662.13 2337.78,-674.12 2381.62,-657.75 2391.48,-654.07 2401.46,-649.32 2411.03,-644.14"/>
<polygon fill="black" stroke="black" points="2412.52,-647.32 2419.52,-639.37 2409.08,-641.22 2412.52,-647.32"/>
<text text-anchor="middle" x="2281.25" y="-678.95" font-family="Times,serif" font-size="14.00">5</text>
</g>
<!-- N20&#45;&gt;N21 -->
<g id="edge45" class="edge">
<title>N20&#45;&gt;N21</title>
<path fill="none" stroke="black" d="M2086.03,-744.88C2118.56,-721.17 2159.88,-691.04 2196.15,-664.59"/>
<polygon fill="black" stroke="black" points="2198.01,-667.56 2204.03,-658.84 2193.89,-661.9 2198.01,-667.56"/>
<text text-anchor="middle" x="2181.16" y="-678.95" font-family="Times,serif" font-size="14.00">3</text>
</g>
<!-- N20&#45;&gt;N34 -->
<g id="edge41" class="edge">
<title>N20&#45;&gt;N34</title>
<path fill="none" stroke="black" d="M2086,-767.55C2138.34,-749.56 2217.52,-721.19 2284.62,-692.25 2299.77,-685.72 2301.96,-680.1 2317.88,-675.75 2424.38,-646.67 2461.98,-695.78 2565.62,-657.75 2572.07,-655.39 2578.44,-652.3 2584.6,-648.8"/>
<polygon fill="black" stroke="black" points="2586.08,-652 2592.77,-643.79 2582.42,-646.03 2586.08,-652"/>
<text text-anchor="middle" x="2321.25" y="-678.95" font-family="Times,serif" font-size="14.00">5</text>
</g>
<!-- N23 -->
<g id="node24" class="node">
<title>N23</title>
<polygon fill="none" stroke="black" points="81.25,-184 24,-184 24,-137 81.25,-137 81.25,-184"/>
<text text-anchor="middle" x="52.62" y="-172.4" font-family="Times,serif" font-size="8.00">std</text>
<text text-anchor="middle" x="52.62" y="-162.65" font-family="Times,serif" font-size="8.00">__fill_a</text>
<text text-anchor="end" x="73.25" y="-152.9" font-family="Times,serif" font-size="8.00">0 (0.0%)</text>
<text text-anchor="end" x="73.25" y="-143.15" font-family="Times,serif" font-size="8.00">of 24 (8.2%)</text>
</g>
<!-- N24 -->
<g id="node25" class="node">
<title>N24</title>
<polygon fill="none" stroke="black" points="105.25,-84.5 0,-84.5 0,0 105.25,0 105.25,-84.5"/>
<text text-anchor="middle" x="52.62" y="-59.32" font-family="Times,serif" font-size="22.30">std</text>
<text text-anchor="middle" x="52.62" y="-33.82" font-family="Times,serif" font-size="22.30">__fill_a1</text>
<text text-anchor="end" x="97.25" y="-8.32" font-family="Times,serif" font-size="22.30">24 (8.2%)</text>
</g>
<!-- N23&#45;&gt;N24 -->
<g id="edge24" class="edge">
<title>N23&#45;&gt;N24</title>
<path fill="none" stroke="black" d="M52.62,-136.53C52.62,-124.94 52.62,-110.36 52.62,-96.2"/>
<polygon fill="black" stroke="black" points="56.13,-96.5 52.63,-86.5 49.13,-96.5 56.13,-96.5"/>
<text text-anchor="middle" x="59.38" y="-105.7" font-family="Times,serif" font-size="14.00">24</text>
</g>
<!-- N25 -->
<g id="node26" class="node">
<title>N25</title>
<polygon fill="none" stroke="black" points="81.25,-283.5 24,-283.5 24,-236.5 81.25,-236.5 81.25,-283.5"/>
<text text-anchor="middle" x="52.62" y="-271.9" font-family="Times,serif" font-size="8.00">std</text>
<text text-anchor="middle" x="52.62" y="-262.15" font-family="Times,serif" font-size="8.00">__fill_n_a</text>
<text text-anchor="end" x="73.25" y="-252.4" font-family="Times,serif" font-size="8.00">0 (0.0%)</text>
<text text-anchor="end" x="73.25" y="-242.65" font-family="Times,serif" font-size="8.00">of 24 (8.2%)</text>
</g>
<!-- N25&#45;&gt;N23 -->
<g id="edge20" class="edge">
<title>N25&#45;&gt;N23</title>
<path fill="none" stroke="black" d="M52.62,-236.39C52.62,-224.29 52.62,-209.15 52.62,-195.65"/>
<polygon fill="black" stroke="black" points="56.13,-195.84 52.63,-185.84 49.13,-195.84 56.13,-195.84"/>
<text text-anchor="middle" x="59.38" y="-205.2" font-family="Times,serif" font-size="14.00">24</text>
</g>
<!-- N26 -->
<g id="node27" class="node">
<title>N26</title>
<polygon fill="none" stroke="black" points="94.75,-492.25 10.5,-492.25 10.5,-435.5 94.75,-435.5 94.75,-492.25"/>
<text text-anchor="middle" x="52.62" y="-480.65" font-family="Times,serif" font-size="8.00">std</text>
<text text-anchor="middle" x="52.62" y="-470.9" font-family="Times,serif" font-size="8.00">__uninitialized_fill_n</text>
<text text-anchor="middle" x="52.62" y="-461.15" font-family="Times,serif" font-size="8.00">__uninit_fill_n</text>
<text text-anchor="end" x="86.75" y="-451.4" font-family="Times,serif" font-size="8.00">0 (0.0%)</text>
<text text-anchor="end" x="86.75" y="-441.65" font-family="Times,serif" font-size="8.00">of 24 (8.2%)</text>
</g>
<!-- N28 -->
<g id="node29" class="node">
<title>N28</title>
<polygon fill="none" stroke="black" points="81.25,-383 24,-383 24,-336 81.25,-336 81.25,-383"/>
<text text-anchor="middle" x="52.62" y="-371.4" font-family="Times,serif" font-size="8.00">std</text>
<text text-anchor="middle" x="52.62" y="-361.65" font-family="Times,serif" font-size="8.00">fill_n</text>
<text text-anchor="end" x="73.25" y="-351.9" font-family="Times,serif" font-size="8.00">0 (0.0%)</text>
<text text-anchor="end" x="73.25" y="-342.15" font-family="Times,serif" font-size="8.00">of 24 (8.2%)</text>
</g>
<!-- N26&#45;&gt;N28 -->
<g id="edge26" class="edge">
<title>N26&#45;&gt;N28</title>
<path fill="none" stroke="black" d="M52.62,-435.17C52.62,-422.75 52.62,-407.97 52.62,-394.85"/>
<polygon fill="black" stroke="black" points="56.13,-394.9 52.63,-384.9 49.13,-394.9 56.13,-394.9"/>
<text text-anchor="middle" x="59.38" y="-404.2" font-family="Times,serif" font-size="14.00">24</text>
</g>
<!-- N27 -->
<g id="node28" class="node">
<title>N27</title>
<polygon fill="none" stroke="black" points="482.5,-811.25 390.75,-811.25 390.75,-764.25 482.5,-764.25 482.5,-811.25"/>
<text text-anchor="middle" x="436.62" y="-799.65" font-family="Times,serif" font-size="8.00">std</text>
<text text-anchor="middle" x="436.62" y="-789.9" font-family="Times,serif" font-size="8.00">__uninitialized_fill_n_a</text>
<text text-anchor="end" x="474.5" y="-780.15" font-family="Times,serif" font-size="8.00">0 (0.0%)</text>
<text text-anchor="end" x="474.5" y="-770.4" font-family="Times,serif" font-size="8.00">of 24 (8.2%)</text>
</g>
<!-- N29 -->
<g id="node30" class="node">
<title>N29</title>
<polygon fill="none" stroke="black" points="91,-624.75 14.25,-624.75 14.25,-577.75 91,-577.75 91,-624.75"/>
<text text-anchor="middle" x="52.62" y="-613.15" font-family="Times,serif" font-size="8.00">std</text>
<text text-anchor="middle" x="52.62" y="-603.4" font-family="Times,serif" font-size="8.00">uninitialized_fill_n</text>
<text text-anchor="end" x="83" y="-593.65" font-family="Times,serif" font-size="8.00">0 (0.0%)</text>
<text text-anchor="end" x="83" y="-583.9" font-family="Times,serif" font-size="8.00">of 24 (8.2%)</text>
</g>
<!-- N27&#45;&gt;N29 -->
<g id="edge28" class="edge">
<title>N27&#45;&gt;N29</title>
<path fill="none" stroke="black" d="M390.27,-776.62C322.11,-760.11 192.93,-722.56 100.62,-657.75 91.34,-651.23 82.71,-642.53 75.39,-633.95"/>
<polygon fill="black" stroke="black" points="78.24,-631.91 69.23,-626.34 72.8,-636.31 78.24,-631.91"/>
<text text-anchor="middle" x="157.23" y="-678.95" font-family="Times,serif" font-size="14.00">24</text>
</g>
<!-- N28&#45;&gt;N25 -->
<g id="edge22" class="edge">
<title>N28&#45;&gt;N25</title>
<path fill="none" stroke="black" d="M52.62,-335.89C52.62,-323.79 52.62,-308.65 52.62,-295.15"/>
<polygon fill="black" stroke="black" points="56.13,-295.34 52.63,-285.34 49.13,-295.34 56.13,-295.34"/>
<text text-anchor="middle" x="59.38" y="-304.7" font-family="Times,serif" font-size="14.00">24</text>
</g>
<!-- N29&#45;&gt;N26 -->
<g id="edge23" class="edge">
<title>N29&#45;&gt;N26</title>
<path fill="none" stroke="black" d="M52.62,-577.29C52.62,-557.28 52.62,-527.84 52.62,-504.11"/>
<polygon fill="black" stroke="black" points="56.13,-504.15 52.63,-494.15 49.13,-504.15 56.13,-504.15"/>
<text text-anchor="middle" x="59.38" y="-513.45" font-family="Times,serif" font-size="14.00">24</text>
</g>
<!-- N30 -->
<g id="node31" class="node">
<title>N30</title>
<polygon fill="none" stroke="black" points="826.75,-974.5 754.5,-974.5 754.5,-917.75 826.75,-917.75 826.75,-974.5"/>
<text text-anchor="middle" x="790.62" y="-962.9" font-family="Times,serif" font-size="8.00">std</text>
<text text-anchor="middle" x="790.62" y="-953.15" font-family="Times,serif" font-size="8.00">vector</text>
<text text-anchor="middle" x="790.62" y="-943.4" font-family="Times,serif" font-size="8.00">_M_fill_initialize</text>
<text text-anchor="end" x="818.75" y="-933.65" font-family="Times,serif" font-size="8.00">0 (0.0%)</text>
<text text-anchor="end" x="818.75" y="-923.9" font-family="Times,serif" font-size="8.00">of 24 (8.2%)</text>
</g>
<!-- N30&#45;&gt;N27 -->
<g id="edge27" class="edge">
<title>N30&#45;&gt;N27</title>
<path fill="none" stroke="black" d="M754.17,-933.67C727.97,-925.13 691.98,-912.73 661.12,-899.75 600.89,-874.42 534,-840.57 489.04,-816.94"/>
<polygon fill="black" stroke="black" points="490.76,-813.89 480.28,-812.32 487.49,-820.08 490.76,-813.89"/>
<text text-anchor="middle" x="667.88" y="-886.45" font-family="Times,serif" font-size="14.00">24</text>
</g>
<!-- N31&#45;&gt;N30 -->
<g id="edge25" class="edge">
<title>N31&#45;&gt;N30</title>
<path fill="none" stroke="black" d="M808.44,-1026.76C805.64,-1014.25 802.29,-999.24 799.25,-985.65"/>
<polygon fill="black" stroke="black" points="802.71,-985.12 797.12,-976.13 795.88,-986.65 802.71,-985.12"/>
<text text-anchor="middle" x="810.81" y="-995.7" font-family="Times,serif" font-size="14.00">24</text>
</g>
</g>
</g></svg>
